<svg version="1.1" id="Layer_1" xmlns="http://www.w3.org/2000/svg" xmlns:xlink="http://www.w3.org/1999/xlink" x="0px" y="0px"
	 width="100%" viewBox="0 0 780 476" enable-background="new 0 0 780 476" xml:space="preserve">
<path fill="#000000" opacity="1.000000" stroke="none" 
	d="
M506.000000,477.000000 
	C337.366791,477.000000 169.233566,477.000000 1.050173,477.000000 
	C1.050173,318.398346 1.050173,159.796692 1.050173,1.097511 
	C260.883240,1.097511 520.766541,1.097511 780.824951,1.097511 
	C780.824951,159.666504 780.824951,318.333252 780.824951,477.000000 
	C689.463318,477.000000 597.981628,477.000000 506.000000,477.000000 
M80.905540,243.434448 
	C87.528458,263.793579 100.812477,277.327637 121.766296,282.619629 
	C132.926834,285.438293 132.996201,285.163666 133.000031,296.451172 
	C133.004089,308.401703 134.403717,309.589081 146.343613,307.771149 
	C146.508240,307.746094 146.674530,307.730255 146.837891,307.698792 
	C173.055573,302.649872 193.811951,289.852722 206.821991,265.813263 
	C218.196686,244.795547 219.074478,222.802658 212.058868,200.567505 
	C205.722977,180.486633 192.207169,165.716110 173.781006,155.846741 
	C163.168030,150.162247 151.678680,146.775970 139.339935,146.936066 
	C134.529465,146.998505 132.725357,148.959854 132.976028,153.572189 
	C133.156464,156.892548 132.834915,160.240753 133.026779,163.559814 
	C133.311005,168.475983 131.424286,170.570282 126.263260,171.181992 
	C113.199333,172.730469 102.374138,179.096405 93.589645,188.724762 
	C79.411354,204.265091 76.137733,222.544159 80.905540,243.434448 
M55.052738,234.175278 
	C55.753513,237.932205 56.391041,241.702225 57.165016,245.444016 
	C63.604820,276.577301 91.254311,302.766052 121.955185,306.736237 
	C123.072891,306.880768 124.843483,306.521820 125.395111,305.746643 
	C128.521515,301.353271 125.264915,292.547668 119.954735,291.280518 
	C109.849403,288.869049 100.986778,284.163849 93.191757,277.413483 
	C67.573639,255.228729 61.973675,218.782394 81.331680,190.421356 
	C90.912582,176.384552 104.170403,166.905975 121.046814,163.025772 
	C125.758789,161.942429 127.308388,157.915482 125.873108,150.822235 
	C124.884186,145.934937 121.157043,147.945206 118.665184,148.454575 
	C97.998222,152.679016 81.721619,163.767822 69.563164,180.876160 
	C58.430008,196.541809 54.253517,214.225098 55.052738,234.175278 
M249.406372,208.937485 
	C246.833206,209.965057 244.209137,210.883774 241.703629,212.055954 
	C239.829376,212.932816 238.107971,214.136383 236.318497,215.194458 
	C237.892181,216.460510 239.358978,218.610535 241.060852,218.816330 
	C245.132477,219.308670 245.092316,221.112869 244.095718,224.244904 
	C242.928116,227.914307 240.390823,228.871216 236.924011,229.221924 
	C235.646118,229.351181 234.115967,230.780273 233.480728,232.017075 
	C233.111816,232.735291 234.126022,235.137985 234.801132,235.263901 
	C240.088348,236.250168 238.927917,239.402740 237.583786,242.691437 
	C236.264084,245.920410 237.742401,246.832733 240.764435,246.962051 
	C245.735107,247.174744 246.761627,243.536896 247.783722,239.982056 
	C248.616379,237.086136 250.425323,235.429718 253.189636,236.513489 
	C253.981155,236.823807 253.819077,239.877563 253.864792,241.679214 
	C253.900558,243.089325 252.960892,245.276932 253.555176,245.757141 
	C254.656448,246.647079 256.906799,247.248383 258.054962,246.689240 
	C259.917267,245.782333 262.051819,244.115479 262.696014,242.285309 
	C264.321289,237.667908 266.978424,235.653961 271.937897,235.784668 
	C273.495056,235.825699 275.107239,233.779984 276.694244,232.689407 
	C275.246826,231.457275 273.950836,229.478088 272.320648,229.147736 
	C268.874939,228.449402 268.388672,227.084915 269.398926,223.946899 
	C270.646271,220.072388 273.204803,218.995972 276.919281,218.781586 
	C278.208771,218.707169 279.947144,217.342590 280.468842,216.131500 
	C280.833496,215.284943 279.663605,212.753021 278.862305,212.596588 
	C274.034058,211.653885 274.805420,208.827393 275.915314,205.531631 
	C277.080658,202.071091 275.204407,201.083054 272.080566,201.079086 
	C267.510803,201.073303 267.461517,204.906326 265.834930,207.683762 
	C264.806641,209.439575 262.331024,210.347778 260.504578,211.636185 
	C260.152496,209.797699 259.801086,207.959091 259.448090,206.120789 
	C259.142395,204.528641 258.834869,202.936844 258.528137,201.344910 
	C256.272705,201.943192 253.699173,202.069977 251.871796,203.302811 
	C250.619202,204.147827 250.404724,206.531647 249.406372,208.937485 
M590.096008,213.559341 
	C588.734131,217.352676 586.345398,221.104156 586.188782,224.946640 
	C585.522400,241.294968 587.728516,243.352844 603.914612,243.995804 
	C605.152100,244.044952 606.351562,245.053268 607.568665,245.615753 
	C606.553040,246.950958 605.527710,249.410522 604.523682,249.401855 
	C601.937866,249.379517 599.395691,248.030594 596.772461,247.646973 
	C593.690674,247.196289 590.541748,247.204712 587.421936,247.014038 
	C588.178955,249.686859 588.195740,252.987839 589.831177,254.915298 
	C594.837036,260.814850 610.125183,260.657776 615.027710,254.824432 
	C616.531555,253.035049 617.686951,250.374695 617.767883,248.069885 
	C618.083130,239.087738 618.066833,230.083984 617.837097,221.096893 
	C617.724243,216.680939 615.772095,212.774750 611.250061,211.409790 
	C604.263489,209.300934 597.198853,208.543320 590.096008,213.559341 
M710.775391,246.361832 
	C708.368347,246.935165 705.857239,247.283173 703.654907,248.299927 
	C703.280518,248.472763 703.742920,251.851593 704.654541,253.172440 
	C708.363586,258.546448 717.322998,260.649445 725.172363,258.326111 
	C731.435913,256.472168 734.526489,252.831055 734.795349,245.370270 
	C735.160950,235.228500 734.918396,225.064987 734.946228,214.910812 
	C734.956299,211.238403 732.907654,210.022186 729.511719,210.022385 
	C726.129333,210.022568 724.057434,211.202805 724.051941,214.887268 
	C724.045471,219.215485 723.949036,223.544113 723.989380,227.871658 
	C724.024597,231.650177 722.974609,234.640472 718.600586,234.699692 
	C714.273682,234.758301 712.988098,231.934586 713.014648,228.074493 
	C713.045471,223.580551 712.976074,219.085587 712.916443,214.591492 
	C712.875610,211.511780 711.249207,210.121490 708.195251,210.071014 
	C704.964844,210.017593 703.103271,211.313461 703.072266,214.700836 
	C703.037170,218.529358 703.004700,222.358093 703.003235,226.186737 
	C702.997070,242.441376 703.820496,243.259033 720.003845,243.996872 
	C721.221680,244.052399 722.393738,245.109589 723.587097,245.701172 
	C722.696716,246.966339 722.075500,248.862411 720.865540,249.378586 
	C717.210144,250.937973 714.102539,249.402939 710.775391,246.361832 
M530.999939,224.500000 
	C531.017212,230.317200 531.048950,236.134399 531.046143,241.951599 
	C531.044617,245.186844 532.528259,246.946381 535.853271,246.939133 
	C541.337158,246.927155 546.839600,247.179840 552.300537,246.816025 
	C559.914856,246.308746 565.333557,240.912872 565.810852,233.319748 
	C566.164551,227.693146 566.184631,222.003250 565.786194,216.381744 
	C565.202087,208.140198 561.962708,204.281769 553.712280,202.889221 
	C548.040100,201.931854 542.148132,202.272934 536.354065,202.042374 
	C532.535034,201.890396 530.966370,203.846619 531.013733,207.544373 
	C531.081848,212.862030 531.011292,218.181473 530.999939,224.500000 
M316.151428,207.587524 
	C311.153778,202.066620 304.852020,200.092819 297.693146,201.455795 
	C287.398651,203.415771 284.042603,207.738770 284.010651,218.341736 
	C283.994110,223.829651 283.873047,229.326401 284.130157,234.803619 
	C284.432220,241.238434 288.347534,245.987946 294.665924,246.878906 
	C299.005829,247.490891 303.606415,247.502045 307.919586,246.772110 
	C314.925446,245.586533 319.273468,238.709274 317.739288,231.810883 
	C317.430359,230.421783 315.652679,228.524078 314.391235,228.391449 
	C312.779602,228.221985 310.838928,229.371841 309.367096,230.414688 
	C308.582672,230.970490 308.465302,232.490997 308.084473,233.589127 
	C306.636963,237.763077 303.374329,238.309464 299.613342,237.828171 
	C296.002716,237.366135 294.410492,234.871231 294.228027,231.645889 
	C293.965546,227.006012 293.626831,222.259232 294.348480,217.721542 
	C294.712311,215.433578 297.102478,212.076233 298.999146,211.763062 
	C301.581696,211.336655 304.677155,213.138519 307.322510,214.449402 
	C308.241730,214.904922 308.165649,217.141754 309.091217,217.862000 
	C310.712677,219.123764 312.757660,220.530762 314.623291,220.528076 
	C315.724030,220.526505 317.643982,217.984451 317.740204,216.491135 
	C317.914673,213.783569 317.001862,211.005936 316.151428,207.587524 
M375.006897,214.598450 
	C369.458588,209.324524 356.981323,207.759857 350.995270,212.378586 
	C348.578796,214.243103 346.734436,217.898361 346.257904,220.989685 
	C345.481262,226.027786 345.945038,231.274063 346.063263,236.428421 
	C346.182587,241.630890 348.877777,245.695938 353.999420,246.487549 
	C359.127380,247.280136 364.522797,247.168549 369.685852,246.526962 
	C371.949799,246.245667 374.520935,244.051819 375.854645,242.009430 
	C376.990570,240.269836 376.552856,237.502609 376.811340,235.190018 
	C374.023285,235.261353 371.218842,235.187073 368.457611,235.497314 
	C367.680878,235.584579 367.110291,237.278061 366.308289,237.411301 
	C363.656281,237.851868 360.888458,238.294724 358.279083,237.927200 
	C357.317322,237.791733 356.672699,235.404480 355.883423,234.044281 
	C357.089966,233.383484 358.266968,232.224899 359.508331,232.151306 
	C363.986267,231.885727 368.530457,232.336502 372.955292,231.774307 
	C374.719147,231.550201 377.649689,229.349457 377.612396,228.122543 
	C377.480774,223.788025 376.294769,219.485550 375.006897,214.598450 
M516.401123,231.998489 
	C519.105103,231.213135 523.140564,231.270874 524.269409,229.488098 
	C528.013245,223.575668 522.892761,212.372040 515.988220,210.965469 
	C511.662598,210.084274 507.029266,209.926773 502.630951,210.381790 
	C496.692230,210.996185 493.230042,215.315475 493.067230,221.296005 
	C492.931274,226.288895 492.944092,231.290344 493.056305,236.284286 
	C493.178741,241.734894 495.974426,245.790298 501.355896,246.591431 
	C506.336792,247.332916 511.590820,247.276825 516.571167,246.537949 
	C518.981873,246.180267 521.642883,243.845337 523.062683,241.669586 
	C524.138733,240.020660 523.429626,237.206772 523.514893,234.911301 
	C520.969543,234.945694 518.405518,234.818909 515.890137,235.111191 
	C515.119873,235.200684 514.576477,236.905685 513.768250,237.067459 
	C510.987305,237.624115 508.107086,238.180191 505.326111,237.960342 
	C504.410492,237.887955 503.681305,235.457932 502.866852,234.105988 
	C504.059326,233.425598 505.204285,232.285858 506.453766,232.156631 
	C509.421997,231.849670 512.439697,232.021271 516.401123,231.998489 
M386.678894,211.929703 
	C385.383911,214.726990 382.257416,218.758255 383.149384,220.082092 
	C385.496307,223.565552 389.512787,222.223892 392.832764,220.140472 
	C393.386353,219.793076 394.021606,219.529358 394.654877,219.362930 
	C398.950714,218.234039 401.632812,219.978867 402.107666,223.746689 
	C397.412048,224.331299 392.610260,224.451202 388.075378,225.612869 
	C382.208191,227.115814 380.759949,230.001205 381.053497,236.973434 
	C381.275085,242.237549 383.994781,246.041046 389.216980,246.790283 
	C393.733643,247.438293 398.440338,247.385620 402.998444,246.956635 
	C408.235474,246.463745 411.821259,242.918304 412.246857,237.911835 
	C412.803253,231.366165 412.616333,224.647049 411.766296,218.130768 
	C411.197937,213.773773 407.638214,210.532593 403.105133,210.362305 
	C397.876526,210.165863 392.605530,211.097427 386.678894,211.929703 
M630.179260,246.860977 
	C633.501465,246.483566 633.950562,244.100067 633.966064,241.423935 
	C633.996887,236.101822 634.046753,230.779633 634.037659,225.457550 
	C634.031311,221.708267 635.596985,219.265228 639.560852,219.296432 
	C643.553955,219.327866 644.981750,221.875809 644.969299,225.580139 
	C644.951416,230.902145 645.041565,236.224487 645.025452,241.546509 
	C645.015259,244.888962 646.192932,246.923218 649.932800,246.940811 
	C653.603943,246.958099 654.982788,245.101654 654.968506,241.680420 
	C654.941406,235.194077 655.044617,228.706558 654.961365,222.221222 
	C654.872986,215.334091 651.991211,211.482483 645.234619,210.527054 
	C641.049377,209.935242 636.610840,210.241257 632.407654,210.909409 
	C627.744141,211.650772 624.443542,214.784286 624.001038,219.594666 
	C623.348938,226.684296 623.365173,233.833389 623.003662,240.952438 
	C622.771790,245.518692 624.915344,247.385956 630.179260,246.860977 
M463.138733,232.387695 
	C464.208954,236.051331 465.235382,239.728500 466.361572,243.374863 
	C467.516357,247.113785 470.642426,247.075607 473.691986,246.970749 
	C476.750153,246.865601 480.419464,247.745972 481.702148,243.686417 
	C484.699036,234.201584 487.547180,224.668930 490.368835,215.129990 
	C491.394562,211.662445 489.675232,210.286987 486.306610,210.035736 
	C482.133301,209.724487 480.247894,211.941299 479.354797,215.601028 
	C477.880920,221.640686 476.369934,227.671295 474.577789,234.903458 
	C473.715668,232.803741 473.267700,231.949677 473.007996,231.041748 
	C471.319550,225.139252 469.718597,219.211411 467.995605,213.319199 
	C466.732880,209.001007 463.118317,209.823105 460.140381,210.290283 
	C456.499207,210.861435 457.843018,213.653839 458.425049,215.811493 
	C459.851562,221.099915 461.379089,226.361130 463.138733,232.387695 
M692.200989,209.522919 
	C691.553345,208.799164 690.530640,208.167435 690.326355,207.334869 
	C689.634399,204.515350 688.168579,203.041031 685.125244,203.048401 
	C682.207764,203.055466 680.603210,204.173782 679.710022,207.076981 
	C679.309937,208.377213 677.568420,209.348267 676.297485,210.280212 
	C673.349854,212.441589 673.029541,216.996445 676.272522,218.514435 
	C679.801331,220.166168 680.025513,222.748657 679.997009,225.836258 
	C679.972412,228.497147 679.989624,231.158600 680.005127,233.819687 
	C680.065308,244.123444 683.249268,247.225342 693.541199,246.979858 
	C696.384644,246.912033 699.456604,247.162643 699.845520,243.083054 
	C700.202087,239.343094 697.941223,238.571899 694.831909,237.682816 
	C692.963745,237.148621 690.411133,234.615997 690.372009,232.930374 
	C690.269592,228.512436 691.358276,224.063400 692.059021,219.640503 
	C692.094543,219.416107 692.935120,219.222504 693.415283,219.181015 
	C696.486572,218.915665 699.007141,218.192245 698.888977,214.265137 
	C698.766296,210.188065 695.770874,210.152313 692.200989,209.522919 
M439.436523,244.863068 
	C440.535950,240.955780 439.643433,238.709610 435.144531,237.696350 
	C433.198853,237.258163 431.158875,234.613022 430.342285,232.511627 
	C429.492737,230.325424 430.118347,227.583359 430.008179,225.088364 
	C429.842957,221.346817 431.067841,218.939865 435.299622,218.954605 
	C438.295685,218.965057 439.935364,217.498291 439.877045,214.332138 
	C439.816437,211.040085 437.693329,210.524216 435.003937,209.846359 
	C433.121674,209.371948 431.636047,207.417709 429.904663,206.223892 
	C428.289246,205.110031 426.571686,203.298279 424.920471,203.321396 
	C423.282959,203.344330 421.537048,205.122787 420.092224,206.414825 
	C418.926819,207.456985 418.286194,209.073608 417.154358,210.168167 
	C414.409790,212.822388 414.555511,215.939392 417.017181,218.838501 
	C418.467346,220.546371 419.513794,222.935547 419.864441,225.156799 
	C420.352478,228.248428 419.937622,231.472717 420.051422,234.635117 
	C420.433746,245.259491 429.219391,250.290726 439.436523,244.863068 
M323.000336,230.557724 
	C323.001282,233.379303 322.916290,236.204178 323.025116,239.021606 
	C323.160095,242.518799 322.082397,246.816406 327.880035,246.918243 
	C333.627838,247.019211 332.921997,242.871719 332.983795,239.261749 
	C333.051941,235.279388 333.015259,231.295303 333.041138,227.312088 
	C333.071442,222.655182 334.444092,219.378754 339.922760,218.735443 
	C341.390656,218.563080 343.646606,215.738953 343.552216,214.259048 
	C343.457886,212.780212 341.012482,210.468185 339.355865,210.234314 
	C329.746979,208.877716 324.214935,213.447403 323.184082,223.116058 
	C322.956146,225.253693 323.053406,227.425980 323.000336,230.557724 
M661.000122,236.445969 
	C661.016968,238.276978 661.049255,240.108017 661.047180,241.939011 
	C661.043579,245.145340 662.429443,246.881317 665.833374,246.937103 
	C669.456299,246.996490 670.975220,245.253372 670.964600,241.771973 
	C670.937622,232.949310 670.937744,224.126419 670.967712,215.303757 
	C670.979370,211.867508 669.574341,210.035690 665.909363,210.059296 
	C662.152222,210.083466 661.013855,212.154495 661.025330,215.484390 
	C661.048218,222.143082 661.011963,228.801971 661.000122,236.445969 
M573.518250,211.003159 
	C573.023193,212.524979 572.124573,214.040329 572.099976,215.569687 
	C571.961304,224.189102 572.049805,232.811920 572.023987,241.433472 
	C572.014221,244.693375 573.009949,246.864471 576.792603,246.941818 
	C580.768494,247.023132 582.005859,244.917557 581.986450,241.349396 
	C581.942139,233.225372 582.032166,225.100510 581.976257,216.976639 
	C581.931030,210.396942 580.892029,209.588928 573.518250,211.003159 
M448.579041,210.094193 
	C445.090851,210.095779 444.035248,212.206238 444.038818,215.282364 
	C444.049103,224.069412 444.059784,232.856552 444.030640,241.643524 
	C444.019409,245.023682 445.320709,246.941452 449.003174,246.940643 
	C452.688904,246.939850 453.980927,245.013687 453.969635,241.637192 
	C453.940308,232.850220 453.950439,224.063080 453.961090,215.276031 
	C453.964813,212.194489 452.895081,210.095947 448.579041,210.094193 
M451.731476,199.315643 
	C449.918976,199.296799 448.050690,198.988129 446.306427,199.323822 
	C443.343353,199.894104 442.413605,202.240921 443.911652,204.517532 
	C444.779480,205.836456 447.156830,206.753830 448.861176,206.763718 
	C450.554749,206.773529 452.969604,205.836472 453.729614,204.533752 
	C454.342743,203.482727 452.962860,201.268967 451.731476,199.315643 
M664.096497,199.302521 
	C663.179504,200.819962 661.696716,202.290924 661.566833,203.873016 
	C661.493896,204.761459 663.635803,206.618011 664.817993,206.650436 
	C666.918152,206.708038 669.047241,205.710037 671.164185,205.153656 
	C670.544189,203.244553 670.296143,201.052307 669.148560,199.544830 
	C668.567383,198.781357 666.361694,199.254486 664.096497,199.302521 
M573.341919,199.546082 
	C572.911316,201.520813 572.480713,203.495560 572.050110,205.470291 
	C574.539185,205.814865 577.082764,206.586609 579.488892,206.280121 
	C580.371338,206.167709 581.854858,202.545074 581.468872,202.171295 
	C580.027039,200.775192 577.955200,199.991974 576.048279,199.138535 
	C575.529175,198.906219 574.759521,199.233856 573.341919,199.546082 
z"/>
<path fill="#231F20" opacity="1.000000" stroke="none" 
	d="
M80.812332,243.033325 
	C76.137733,222.544159 79.411354,204.265091 93.589645,188.724762 
	C102.374138,179.096405 113.199333,172.730469 126.263260,171.181992 
	C131.424286,170.570282 133.311005,168.475983 133.026779,163.559814 
	C132.834915,160.240753 133.156464,156.892548 132.976028,153.572189 
	C132.725357,148.959854 134.529465,146.998505 139.339935,146.936066 
	C151.678680,146.775970 163.168030,150.162247 173.781006,155.846741 
	C192.207169,165.716110 205.722977,180.486633 212.058868,200.567505 
	C219.074478,222.802658 218.196686,244.795547 206.821991,265.813263 
	C193.811951,289.852722 173.055573,302.649872 146.837891,307.698792 
	C146.674530,307.730255 146.508240,307.746094 146.343613,307.771149 
	C134.403717,309.589081 133.004089,308.401703 133.000031,296.451172 
	C132.996201,285.163666 132.926834,285.438293 121.766296,282.619629 
	C100.812477,277.327637 87.528458,263.793579 80.812332,243.033325 
M198.541046,207.034622 
	C190.669312,185.007751 175.469391,170.590775 153.171829,163.762360 
	C151.482529,163.245026 147.908798,164.053680 147.497574,165.124237 
	C146.402786,167.974487 147.103302,170.498611 150.824417,172.145340 
	C158.201767,175.410141 166.019043,178.491409 172.224945,183.440948 
	C190.963425,198.385971 197.368362,222.679108 190.334351,244.666580 
	C184.344254,263.390900 171.564987,276.033691 152.538437,282.012146 
	C146.617630,283.872589 145.813919,285.888031 148.269470,291.437347 
	C182.420776,286.752411 211.436630,248.058838 198.541046,207.034622 
M153.854050,219.852402 
	C152.427887,217.818192 151.233994,215.561661 149.536057,213.787567 
	C141.456772,205.346191 128.890793,205.809601 120.879768,214.705048 
	C113.910568,222.443634 115.130905,235.565292 123.454910,242.394257 
	C129.923965,247.701431 139.248749,248.238785 146.293060,243.710373 
	C154.090652,238.697708 156.885071,230.458984 153.854050,219.852402 
M97.741783,245.654205 
	C103.863121,257.265167 113.067017,265.081421 125.891106,268.348724 
	C128.642609,269.049774 131.823227,269.875397 132.693649,265.803406 
	C133.445450,262.286407 131.012512,261.372833 128.087158,260.715363 
	C106.856941,255.943878 97.657318,236.506546 103.375679,215.895798 
	C106.763641,203.684555 116.128052,196.871338 128.197464,193.722473 
	C131.244049,192.927643 133.632111,191.466400 132.674088,187.840836 
	C131.675323,184.061035 128.730072,185.671539 126.486130,186.150635 
	C103.625237,191.031631 84.698669,218.195206 97.741783,245.654205 
M155.736450,255.232925 
	C153.631607,256.556335 151.048126,257.491089 149.564178,259.318665 
	C148.231201,260.960266 148.106171,263.582733 147.448288,265.772491 
	C149.221359,265.863953 151.498215,266.708191 152.680557,265.916931 
	C157.879608,262.437653 163.538986,259.177856 167.628479,254.588318 
	C187.468430,232.322464 177.675400,199.323181 151.904388,188.366074 
	C150.747513,187.874222 147.919815,188.457352 147.744232,189.073669 
	C147.303375,190.620941 147.520401,192.692459 148.273758,194.136215 
	C148.872391,195.283447 150.603165,195.911011 151.919601,196.600677 
	C158.801987,200.206223 163.545105,205.701630 167.056244,212.592667 
	C174.092468,226.402084 169.049011,246.831253 155.736450,255.232925 
z"/>
<path fill="#231F20" opacity="1.000000" stroke="none" 
	d="
M55.039864,233.707565 
	C54.253517,214.225098 58.430008,196.541809 69.563164,180.876160 
	C81.721619,163.767822 97.998222,152.679016 118.665184,148.454575 
	C121.157043,147.945206 124.884186,145.934937 125.873108,150.822235 
	C127.308388,157.915482 125.758789,161.942429 121.046814,163.025772 
	C104.170403,166.905975 90.912582,176.384552 81.331680,190.421356 
	C61.973675,218.782394 67.573639,255.228729 93.191757,277.413483 
	C100.986778,284.163849 109.849403,288.869049 119.954735,291.280518 
	C125.264915,292.547668 128.521515,301.353271 125.395111,305.746643 
	C124.843483,306.521820 123.072891,306.880768 121.955185,306.736237 
	C91.254311,302.766052 63.604820,276.577301 57.165016,245.444016 
	C56.391041,241.702225 55.753513,237.932205 55.039864,233.707565 
z"/>
<path fill="#231F20" opacity="1.000000" stroke="none" 
	d="
M249.566284,208.582550 
	C250.404724,206.531647 250.619202,204.147827 251.871796,203.302811 
	C253.699173,202.069977 256.272705,201.943192 258.528137,201.344910 
	C258.834869,202.936844 259.142395,204.528641 259.448090,206.120789 
	C259.801086,207.959091 260.152496,209.797699 260.504578,211.636169 
	C262.331024,210.347778 264.806641,209.439575 265.834930,207.683762 
	C267.461517,204.906326 267.510803,201.073303 272.080566,201.079086 
	C275.204407,201.083054 277.080658,202.071091 275.915314,205.531631 
	C274.805420,208.827393 274.034058,211.653885 278.862305,212.596588 
	C279.663605,212.753021 280.833496,215.284943 280.468842,216.131500 
	C279.947144,217.342590 278.208771,218.707169 276.919281,218.781586 
	C273.204803,218.995972 270.646271,220.072388 269.398926,223.946899 
	C268.388672,227.084915 268.874939,228.449402 272.320648,229.147736 
	C273.950836,229.478088 275.246826,231.457275 276.694244,232.689392 
	C275.107239,233.779984 273.495056,235.825699 271.937897,235.784668 
	C266.978424,235.653961 264.321289,237.667908 262.696014,242.285309 
	C262.051819,244.115479 259.917267,245.782333 258.054962,246.689240 
	C256.906799,247.248383 254.656448,246.647079 253.555176,245.757141 
	C252.960892,245.276932 253.900558,243.089325 253.864792,241.679214 
	C253.819077,239.877563 253.981155,236.823807 253.189636,236.513489 
	C250.425323,235.429718 248.616379,237.086136 247.783722,239.982056 
	C246.761627,243.536896 245.735107,247.174744 240.764435,246.962051 
	C237.742401,246.832733 236.264084,245.920410 237.583786,242.691437 
	C238.927917,239.402740 240.088348,236.250168 234.801132,235.263901 
	C234.126022,235.137985 233.111816,232.735291 233.480728,232.017075 
	C234.115967,230.780273 235.646118,229.351181 236.924011,229.221924 
	C240.390823,228.871216 242.928116,227.914307 244.095718,224.244904 
	C245.092316,221.112869 245.132477,219.308670 241.060852,218.816330 
	C239.358978,218.610535 237.892181,216.460510 236.318497,215.194458 
	C238.107971,214.136383 239.829376,212.932816 241.703629,212.055954 
	C244.209137,210.883774 246.833206,209.965057 249.566284,208.582550 
M260.447449,220.095276 
	C255.207687,218.440338 253.477554,220.197266 252.636719,228.027039 
	C258.222717,229.548111 259.689240,228.209930 260.447449,220.095276 
z"/>
<path fill="#231F20" opacity="1.000000" stroke="none" 
	d="
M590.376648,213.310364 
	C597.198853,208.543320 604.263489,209.300934 611.250061,211.409790 
	C615.772095,212.774750 617.724243,216.680939 617.837097,221.096893 
	C618.066833,230.083984 618.083130,239.087738 617.767883,248.069885 
	C617.686951,250.374695 616.531555,253.035049 615.027710,254.824432 
	C610.125183,260.657776 594.837036,260.814850 589.831177,254.915298 
	C588.195740,252.987839 588.178955,249.686859 587.421936,247.014038 
	C590.541748,247.204712 593.690674,247.196289 596.772461,247.646973 
	C599.395691,248.030594 601.937866,249.379517 604.523682,249.401855 
	C605.527710,249.410522 606.553040,246.950958 607.568665,245.615753 
	C606.351562,245.053268 605.152100,244.044952 603.914612,243.995804 
	C587.728516,243.352844 585.522400,241.294968 586.188782,224.946640 
	C586.345398,221.104156 588.734131,217.352676 590.376648,213.310364 
M607.390991,222.511795 
	C605.905823,219.451752 603.081116,218.199417 600.410583,219.662231 
	C598.716309,220.590317 597.840149,223.438828 597.136414,225.601593 
	C596.649414,227.098343 596.531799,229.194016 597.234436,230.486450 
	C598.278625,232.407135 600.258667,235.237869 601.722534,235.169159 
	C603.768494,235.073166 606.588196,233.061981 607.457031,231.138565 
	C608.447876,228.945068 607.658752,225.947510 607.390991,222.511795 
z"/>
<path fill="#231F20" opacity="1.000000" stroke="none" 
	d="
M711.146912,246.503510 
	C714.102539,249.402939 717.210144,250.937973 720.865540,249.378586 
	C722.075500,248.862411 722.696716,246.966339 723.587097,245.701172 
	C722.393738,245.109589 721.221680,244.052399 720.003845,243.996872 
	C703.820496,243.259033 702.997070,242.441376 703.003235,226.186737 
	C703.004700,222.358093 703.037170,218.529358 703.072266,214.700836 
	C703.103271,211.313461 704.964844,210.017593 708.195251,210.071014 
	C711.249207,210.121490 712.875610,211.511780 712.916443,214.591492 
	C712.976074,219.085587 713.045471,223.580551 713.014648,228.074493 
	C712.988098,231.934586 714.273682,234.758301 718.600586,234.699692 
	C722.974609,234.640472 724.024597,231.650177 723.989380,227.871658 
	C723.949036,223.544113 724.045471,219.215485 724.051941,214.887268 
	C724.057434,211.202805 726.129333,210.022568 729.511719,210.022385 
	C732.907654,210.022186 734.956299,211.238403 734.946228,214.910812 
	C734.918396,225.064987 735.160950,235.228500 734.795349,245.370270 
	C734.526489,252.831055 731.435913,256.472168 725.172363,258.326111 
	C717.322998,260.649445 708.363586,258.546448 704.654541,253.172440 
	C703.742920,251.851593 703.280518,248.472763 703.654907,248.299927 
	C705.857239,247.283173 708.368347,246.935165 711.146912,246.503510 
z"/>
<path fill="#231F20" opacity="1.000000" stroke="none" 
	d="
M531.000000,224.000076 
	C531.011292,218.181473 531.081848,212.862030 531.013733,207.544373 
	C530.966370,203.846619 532.535034,201.890396 536.354065,202.042374 
	C542.148132,202.272934 548.040100,201.931854 553.712280,202.889221 
	C561.962708,204.281769 565.202087,208.140198 565.786194,216.381744 
	C566.184631,222.003250 566.164551,227.693146 565.810852,233.319748 
	C565.333557,240.912872 559.914856,246.308746 552.300537,246.816025 
	C546.839600,247.179840 541.337158,246.927155 535.853271,246.939133 
	C532.528259,246.946381 531.044617,245.186844 531.046143,241.951599 
	C531.048950,236.134399 531.017212,230.317200 531.000000,224.000076 
M546.522278,212.041168 
	C542.404724,211.801453 540.915039,213.971741 541.001160,217.831558 
	C541.097290,222.137848 541.266052,226.466721 540.951782,230.752670 
	C540.379028,238.562668 544.908691,239.229263 550.894409,237.022964 
	C553.074951,236.219284 554.943176,232.860931 555.680969,230.301193 
	C556.521362,227.385513 556.029541,224.057846 555.957397,220.912903 
	C555.804871,214.266159 554.168152,212.622925 546.522278,212.041168 
z"/>
<path fill="#231F20" opacity="1.000000" stroke="none" 
	d="
M316.347168,207.922546 
	C317.001862,211.005936 317.914673,213.783569 317.740204,216.491135 
	C317.643982,217.984451 315.724030,220.526505 314.623291,220.528076 
	C312.757660,220.530762 310.712677,219.123764 309.091217,217.862000 
	C308.165649,217.141754 308.241730,214.904922 307.322510,214.449402 
	C304.677155,213.138519 301.581696,211.336655 298.999146,211.763062 
	C297.102478,212.076233 294.712311,215.433578 294.348480,217.721542 
	C293.626831,222.259232 293.965546,227.006012 294.228027,231.645889 
	C294.410492,234.871231 296.002716,237.366135 299.613342,237.828171 
	C303.374329,238.309464 306.636963,237.763077 308.084473,233.589127 
	C308.465302,232.490997 308.582672,230.970490 309.367096,230.414688 
	C310.838928,229.371841 312.779602,228.221985 314.391235,228.391449 
	C315.652679,228.524078 317.430359,230.421783 317.739288,231.810883 
	C319.273468,238.709274 314.925446,245.586533 307.919586,246.772110 
	C303.606415,247.502045 299.005829,247.490891 294.665924,246.878906 
	C288.347534,245.987946 284.432220,241.238434 284.130157,234.803619 
	C283.873047,229.326401 283.994110,223.829651 284.010651,218.341736 
	C284.042603,207.738770 287.398651,203.415771 297.693146,201.455795 
	C304.852020,200.092819 311.153778,202.066620 316.347168,207.922546 
z"/>
<path fill="#231F20" opacity="1.000000" stroke="none" 
	d="
M375.257690,214.884674 
	C376.294769,219.485550 377.480774,223.788025 377.612396,228.122543 
	C377.649689,229.349457 374.719147,231.550201 372.955292,231.774307 
	C368.530457,232.336502 363.986267,231.885727 359.508331,232.151306 
	C358.266968,232.224899 357.089966,233.383484 355.883423,234.044281 
	C356.672699,235.404480 357.317322,237.791733 358.279083,237.927200 
	C360.888458,238.294724 363.656281,237.851868 366.308289,237.411301 
	C367.110291,237.278061 367.680878,235.584579 368.457611,235.497314 
	C371.218842,235.187073 374.023285,235.261353 376.811340,235.190018 
	C376.552856,237.502609 376.990570,240.269836 375.854645,242.009430 
	C374.520935,244.051819 371.949799,246.245667 369.685852,246.526962 
	C364.522797,247.168549 359.127380,247.280136 353.999420,246.487549 
	C348.877777,245.695938 346.182587,241.630890 346.063263,236.428421 
	C345.945038,231.274063 345.481262,226.027786 346.257904,220.989685 
	C346.734436,217.898361 348.578796,214.243103 350.995270,212.378586 
	C356.981323,207.759857 369.458588,209.324524 375.257690,214.884674 
M357.485962,219.689163 
	C355.279572,221.965027 355.603027,223.522888 358.867371,223.862823 
	C360.820038,224.066162 362.836609,224.007431 364.782715,223.750443 
	C365.568939,223.646622 366.715088,222.787140 366.840027,222.112686 
	C366.971283,221.404175 366.168030,219.879211 365.613464,219.797699 
	C363.136261,219.433609 360.601990,219.457764 357.485962,219.689163 
z"/>
<path fill="#231F20" opacity="1.000000" stroke="none" 
	d="
M515.919250,231.998993 
	C512.439697,232.021271 509.421997,231.849670 506.453766,232.156631 
	C505.204285,232.285858 504.059326,233.425598 502.866882,234.105988 
	C503.681305,235.457932 504.410492,237.887955 505.326111,237.960342 
	C508.107086,238.180191 510.987305,237.624115 513.768250,237.067459 
	C514.576477,236.905685 515.119873,235.200684 515.890137,235.111191 
	C518.405518,234.818909 520.969543,234.945694 523.514893,234.911285 
	C523.429626,237.206772 524.138733,240.020660 523.062683,241.669586 
	C521.642883,243.845337 518.981873,246.180267 516.571167,246.537949 
	C511.590820,247.276825 506.336792,247.332916 501.355896,246.591431 
	C495.974426,245.790298 493.178741,241.734894 493.056305,236.284286 
	C492.944092,231.290344 492.931274,226.288895 493.067230,221.296005 
	C493.230042,215.315475 496.692230,210.996185 502.630951,210.381790 
	C507.029266,209.926773 511.662598,210.084274 515.988220,210.965469 
	C522.892761,212.372040 528.013245,223.575668 524.269409,229.488098 
	C523.140564,231.270874 519.105103,231.213135 515.919250,231.998993 
M503.552155,220.651962 
	C503.458252,221.284378 503.364349,221.916809 503.270447,222.549225 
	C506.389496,222.905289 509.504669,223.345718 512.633484,223.490997 
	C512.957520,223.506027 513.363159,221.765182 513.730896,220.839066 
	C511.193665,220.209351 508.674744,219.474899 506.106018,219.025055 
	C505.479980,218.915405 504.690277,219.740265 503.552155,220.651962 
z"/>
<path fill="#231F20" opacity="1.000000" stroke="none" 
	d="
M387.015930,211.734436 
	C392.605530,211.097427 397.876526,210.165863 403.105133,210.362305 
	C407.638214,210.532593 411.197937,213.773773 411.766296,218.130768 
	C412.616333,224.647049 412.803253,231.366165 412.246857,237.911835 
	C411.821259,242.918304 408.235474,246.463745 402.998444,246.956635 
	C398.440338,247.385620 393.733643,247.438293 389.216980,246.790283 
	C383.994781,246.041046 381.275085,242.237549 381.053497,236.973434 
	C380.759949,230.001205 382.208191,227.115814 388.075378,225.612869 
	C392.610260,224.451202 397.412048,224.331299 402.107666,223.746689 
	C401.632812,219.978867 398.950714,218.234039 394.654877,219.362930 
	C394.021606,219.529358 393.386353,219.793076 392.832764,220.140472 
	C389.512787,222.223892 385.496307,223.565552 383.149384,220.082092 
	C382.257416,218.758255 385.383911,214.726990 387.015930,211.734436 
M399.944366,232.354889 
	C398.200439,232.159729 395.990021,231.222717 394.828247,231.953308 
	C393.304382,232.911652 392.130219,235.100662 391.805756,236.937088 
	C391.687286,237.607635 394.433105,239.541977 395.873322,239.543213 
	C397.783569,239.544846 400.023651,238.579651 401.448761,237.287415 
	C402.042664,236.748856 400.902100,234.297485 399.944366,232.354889 
z"/>
<path fill="#231F20" opacity="1.000000" stroke="none" 
	d="
M629.759033,246.892410 
	C624.915344,247.385956 622.771790,245.518692 623.003662,240.952438 
	C623.365173,233.833389 623.348938,226.684296 624.001038,219.594666 
	C624.443542,214.784286 627.744141,211.650772 632.407654,210.909409 
	C636.610840,210.241257 641.049377,209.935242 645.234619,210.527054 
	C651.991211,211.482483 654.872986,215.334091 654.961365,222.221222 
	C655.044617,228.706558 654.941406,235.194077 654.968506,241.680420 
	C654.982788,245.101654 653.603943,246.958099 649.932800,246.940811 
	C646.192932,246.923218 645.015259,244.888962 645.025452,241.546509 
	C645.041565,236.224487 644.951416,230.902145 644.969299,225.580139 
	C644.981750,221.875809 643.553955,219.327866 639.560852,219.296432 
	C635.596985,219.265228 634.031311,221.708267 634.037659,225.457550 
	C634.046753,230.779633 633.996887,236.101822 633.966064,241.423935 
	C633.950562,244.100067 633.501465,246.483566 629.759033,246.892410 
z"/>
<path fill="#231F20" opacity="1.000000" stroke="none" 
	d="
M463.002319,232.010498 
	C461.379089,226.361130 459.851562,221.099915 458.425049,215.811493 
	C457.843018,213.653839 456.499207,210.861435 460.140381,210.290283 
	C463.118317,209.823105 466.732880,209.001007 467.995605,213.319199 
	C469.718597,219.211411 471.319550,225.139252 473.007996,231.041748 
	C473.267700,231.949677 473.715668,232.803741 474.577789,234.903458 
	C476.369934,227.671295 477.880920,221.640686 479.354797,215.601028 
	C480.247894,211.941299 482.133301,209.724487 486.306610,210.035736 
	C489.675232,210.286987 491.394562,211.662445 490.368835,215.129990 
	C487.547180,224.668930 484.699036,234.201584 481.702148,243.686417 
	C480.419464,247.745972 476.750153,246.865601 473.691986,246.970749 
	C470.642426,247.075607 467.516357,247.113785 466.361572,243.374863 
	C465.235382,239.728500 464.208954,236.051331 463.002319,232.010498 
z"/>
<path fill="#231F20" opacity="1.000000" stroke="none" 
	d="
M692.578491,209.640747 
	C695.770874,210.152313 698.766296,210.188065 698.888977,214.265137 
	C699.007141,218.192245 696.486572,218.915665 693.415283,219.181015 
	C692.935120,219.222504 692.094543,219.416107 692.059021,219.640503 
	C691.358276,224.063400 690.269592,228.512436 690.372009,232.930374 
	C690.411133,234.615997 692.963745,237.148621 694.831909,237.682816 
	C697.941223,238.571899 700.202087,239.343094 699.845520,243.083054 
	C699.456604,247.162643 696.384644,246.912033 693.541199,246.979858 
	C683.249268,247.225342 680.065308,244.123444 680.005127,233.819687 
	C679.989624,231.158600 679.972412,228.497147 679.997009,225.836258 
	C680.025513,222.748657 679.801331,220.166168 676.272522,218.514435 
	C673.029541,216.996445 673.349854,212.441589 676.297485,210.280212 
	C677.568420,209.348267 679.309937,208.377213 679.710022,207.076981 
	C680.603210,204.173782 682.207764,203.055466 685.125244,203.048401 
	C688.168579,203.041031 689.634399,204.515350 690.326355,207.334869 
	C690.530640,208.167435 691.553345,208.799164 692.578491,209.640747 
z"/>
<path fill="#231F20" opacity="1.000000" stroke="none" 
	d="
M439.205841,245.187958 
	C429.219391,250.290726 420.433746,245.259491 420.051422,234.635117 
	C419.937622,231.472717 420.352478,228.248428 419.864441,225.156799 
	C419.513794,222.935547 418.467346,220.546371 417.017181,218.838501 
	C414.555511,215.939392 414.409790,212.822388 417.154358,210.168167 
	C418.286194,209.073608 418.926819,207.456985 420.092224,206.414825 
	C421.537048,205.122787 423.282959,203.344330 424.920471,203.321396 
	C426.571686,203.298279 428.289246,205.110031 429.904663,206.223892 
	C431.636047,207.417709 433.121674,209.371948 435.003937,209.846359 
	C437.693329,210.524216 439.816437,211.040085 439.877045,214.332138 
	C439.935364,217.498291 438.295685,218.965057 435.299622,218.954605 
	C431.067841,218.939865 429.842957,221.346817 430.008179,225.088364 
	C430.118347,227.583359 429.492737,230.325424 430.342285,232.511627 
	C431.158875,234.613022 433.198853,237.258163 435.144531,237.696350 
	C439.643433,238.709610 440.535950,240.955780 439.205841,245.187958 
z"/>
<path fill="#231F20" opacity="1.000000" stroke="none" 
	d="
M323.000610,230.070023 
	C323.053406,227.425980 322.956146,225.253693 323.184082,223.116058 
	C324.214935,213.447403 329.746979,208.877716 339.355865,210.234314 
	C341.012482,210.468185 343.457886,212.780212 343.552216,214.259048 
	C343.646606,215.738953 341.390656,218.563080 339.922760,218.735443 
	C334.444092,219.378754 333.071442,222.655182 333.041138,227.312088 
	C333.015259,231.295303 333.051941,235.279388 332.983795,239.261749 
	C332.921997,242.871719 333.627838,247.019211 327.880035,246.918243 
	C322.082397,246.816406 323.160095,242.518799 323.025116,239.021606 
	C322.916290,236.204178 323.001282,233.379303 323.000610,230.070023 
z"/>
<path fill="#231F20" opacity="1.000000" stroke="none" 
	d="
M661.000122,235.953369 
	C661.011963,228.801971 661.048218,222.143082 661.025330,215.484390 
	C661.013855,212.154495 662.152222,210.083466 665.909363,210.059296 
	C669.574341,210.035690 670.979370,211.867508 670.967712,215.303757 
	C670.937744,224.126419 670.937622,232.949310 670.964600,241.771973 
	C670.975220,245.253372 669.456299,246.996490 665.833374,246.937103 
	C662.429443,246.881317 661.043579,245.145340 661.047180,241.939011 
	C661.049255,240.108017 661.016968,238.276978 661.000122,235.953369 
z"/>
<path fill="#231F20" opacity="1.000000" stroke="none" 
	d="
M573.858093,210.774902 
	C580.892029,209.588928 581.931030,210.396942 581.976257,216.976639 
	C582.032166,225.100510 581.942139,233.225372 581.986450,241.349396 
	C582.005859,244.917557 580.768494,247.023132 576.792603,246.941818 
	C573.009949,246.864471 572.014221,244.693375 572.023987,241.433472 
	C572.049805,232.811920 571.961304,224.189102 572.099976,215.569687 
	C572.124573,214.040329 573.023193,212.524979 573.858093,210.774902 
z"/>
<path fill="#231F20" opacity="1.000000" stroke="none" 
	d="
M448.995758,210.094543 
	C452.895081,210.095947 453.964813,212.194489 453.961090,215.276031 
	C453.950439,224.063080 453.940308,232.850220 453.969635,241.637192 
	C453.980927,245.013687 452.688904,246.939850 449.003174,246.940643 
	C445.320709,246.941452 444.019409,245.023682 444.030640,241.643524 
	C444.059784,232.856552 444.049103,224.069412 444.038818,215.282364 
	C444.035248,212.206238 445.090851,210.095779 448.995758,210.094543 
z"/>
<path fill="#231F20" opacity="1.000000" stroke="none" 
	d="
M452.099304,199.443344 
	C452.962860,201.268967 454.342743,203.482727 453.729614,204.533752 
	C452.969604,205.836472 450.554749,206.773529 448.861176,206.763718 
	C447.156830,206.753830 444.779480,205.836456 443.911652,204.517532 
	C442.413605,202.240921 443.343353,199.894104 446.306427,199.323822 
	C448.050690,198.988129 449.918976,199.296799 452.099304,199.443344 
z"/>
<path fill="#231F20" opacity="1.000000" stroke="none" 
	d="
M664.493469,199.235535 
	C666.361694,199.254486 668.567383,198.781357 669.148560,199.544830 
	C670.296143,201.052307 670.544189,203.244553 671.164185,205.153656 
	C669.047241,205.710037 666.918152,206.708038 664.817993,206.650436 
	C663.635803,206.618011 661.493896,204.761459 661.566833,203.873016 
	C661.696716,202.290924 663.179504,200.819962 664.493469,199.235535 
z"/>
<path fill="#231F20" opacity="1.000000" stroke="none" 
	d="
M573.723389,199.425293 
	C574.759521,199.233856 575.529175,198.906219 576.048279,199.138535 
	C577.955200,199.991974 580.027039,200.775192 581.468872,202.171295 
	C581.854858,202.545074 580.371338,206.167709 579.488892,206.280121 
	C577.082764,206.586609 574.539185,205.814865 572.050171,205.470306 
	C572.480713,203.495560 572.911316,201.520813 573.723389,199.425293 
z"/>
<path fill="#000000" opacity="1.000000" stroke="none" 
	d="
M198.669128,207.415649 
	C211.436630,248.058838 182.420776,286.752411 148.269470,291.437347 
	C145.813919,285.888031 146.617630,283.872589 152.538437,282.012146 
	C171.564987,276.033691 184.344254,263.390900 190.334351,244.666580 
	C197.368362,222.679108 190.963425,198.385971 172.224945,183.440948 
	C166.019043,178.491409 158.201767,175.410141 150.824417,172.145340 
	C147.103302,170.498611 146.402786,167.974487 147.497574,165.124237 
	C147.908798,164.053680 151.482529,163.245026 153.171829,163.762360 
	C175.469391,170.590775 190.669312,185.007751 198.669128,207.415649 
z"/>
<path fill="#000000" opacity="1.000000" stroke="none" 
	d="
M153.999908,220.205368 
	C156.885071,230.458984 154.090652,238.697708 146.293060,243.710373 
	C139.248749,248.238785 129.923965,247.701431 123.454910,242.394257 
	C115.130905,235.565292 113.910568,222.443634 120.879768,214.705048 
	C128.890793,205.809601 141.456772,205.346191 149.536057,213.787567 
	C151.233994,215.561661 152.427887,217.818192 153.999908,220.205368 
z"/>
<path fill="#000000" opacity="1.000000" stroke="none" 
	d="
M97.584885,245.307892 
	C84.698669,218.195206 103.625237,191.031631 126.486130,186.150635 
	C128.730072,185.671539 131.675323,184.061035 132.674088,187.840836 
	C133.632111,191.466400 131.244049,192.927643 128.197464,193.722473 
	C116.128052,196.871338 106.763641,203.684555 103.375679,215.895798 
	C97.657318,236.506546 106.856941,255.943878 128.087158,260.715363 
	C131.012512,261.372833 133.445450,262.286407 132.693649,265.803406 
	C131.823227,269.875397 128.642609,269.049774 125.891106,268.348724 
	C113.067017,265.081421 103.863121,257.265167 97.584885,245.307892 
z"/>
<path fill="#000000" opacity="1.000000" stroke="none" 
	d="
M156.049988,255.056610 
	C169.049011,246.831253 174.092468,226.402084 167.056244,212.592667 
	C163.545105,205.701630 158.801987,200.206223 151.919601,196.600677 
	C150.603165,195.911011 148.872391,195.283447 148.273758,194.136215 
	C147.520401,192.692459 147.303375,190.620941 147.744232,189.073669 
	C147.919815,188.457352 150.747513,187.874222 151.904388,188.366074 
	C177.675400,199.323181 187.468430,232.322464 167.628479,254.588318 
	C163.538986,259.177856 157.879608,262.437653 152.680557,265.916931 
	C151.498215,266.708191 149.221359,265.863953 147.448288,265.772522 
	C148.106171,263.582733 148.231201,260.960266 149.564178,259.318665 
	C151.048126,257.491089 153.631607,256.556335 156.049988,255.056610 
z"/>
<path fill="#000000" opacity="1.000000" stroke="none" 
	d="
M260.564880,220.390381 
	C259.689240,228.209930 258.222717,229.548111 252.636719,228.027039 
	C253.477554,220.197266 255.207687,218.440338 260.564880,220.390381 
z"/>
<path fill="#000000" opacity="1.000000" stroke="none" 
	d="
M607.517090,222.905609 
	C607.658752,225.947510 608.447876,228.945068 607.457031,231.138565 
	C606.588196,233.061981 603.768494,235.073166 601.722534,235.169159 
	C600.258667,235.237869 598.278625,232.407135 597.234436,230.486450 
	C596.531799,229.194016 596.649414,227.098343 597.136414,225.601593 
	C597.840149,223.438828 598.716309,220.590317 600.410583,219.662231 
	C603.081116,218.199417 605.905823,219.451752 607.517090,222.905609 
z"/>
<path fill="#000000" opacity="1.000000" stroke="none" 
	d="
M546.947876,212.040482 
	C554.168152,212.622925 555.804871,214.266159 555.957397,220.912903 
	C556.029541,224.057846 556.521362,227.385513 555.680969,230.301193 
	C554.943176,232.860931 553.074951,236.219284 550.894409,237.022964 
	C544.908691,239.229263 540.379028,238.562668 540.951782,230.752670 
	C541.266052,226.466721 541.097290,222.137848 541.001160,217.831558 
	C540.915039,213.971741 542.404724,211.801453 546.947876,212.040482 
z"/>
<path fill="#000000" opacity="1.000000" stroke="none" 
	d="
M357.787170,219.515411 
	C360.601990,219.457764 363.136261,219.433609 365.613464,219.797699 
	C366.168030,219.879211 366.971283,221.404175 366.840027,222.112686 
	C366.715088,222.787140 365.568939,223.646622 364.782715,223.750443 
	C362.836609,224.007431 360.820038,224.066162 358.867371,223.862823 
	C355.603027,223.522888 355.279572,221.965027 357.787170,219.515411 
z"/>
<path fill="#000000" opacity="1.000000" stroke="none" 
	d="
M503.763977,220.393707 
	C504.690277,219.740265 505.479980,218.915405 506.106018,219.025055 
	C508.674744,219.474899 511.193665,220.209351 513.730896,220.839050 
	C513.363159,221.765182 512.957520,223.506027 512.633484,223.490997 
	C509.504669,223.345718 506.389496,222.905289 503.270447,222.549225 
	C503.364349,221.916809 503.458252,221.284378 503.763977,220.393707 
z"/>
<path fill="#000000" opacity="1.000000" stroke="none" 
	d="
M400.247314,232.535385 
	C400.902100,234.297485 402.042664,236.748856 401.448761,237.287415 
	C400.023651,238.579651 397.783569,239.544846 395.873322,239.543213 
	C394.433105,239.541977 391.687286,237.607635 391.805756,236.937088 
	C392.130219,235.100662 393.304382,232.911652 394.828247,231.953308 
	C395.990021,231.222717 398.200439,232.159729 400.247314,232.535385 
z"/>
</svg>