<svg version="1.1" id="Layer_1" xmlns="http://www.w3.org/2000/svg" xmlns:xlink="http://www.w3.org/1999/xlink" x="0px" y="0px"
	 width="100%" viewBox="0 0 225 225" enable-background="new 0 0 225 225" xml:space="preserve">
<path fill="#FFFFFF" opacity="1.000000" stroke="none" 
	d="
M112.000000,226.000000 
	C74.666672,226.000000 37.833336,226.000000 1.000005,226.000000 
	C1.000003,151.000000 1.000003,76.000015 1.000002,1.000015 
	C75.999992,1.000010 150.999985,1.000010 225.999969,1.000005 
	C225.999985,75.999985 225.999985,150.999969 226.000000,225.999969 
	C188.166672,226.000000 150.333328,226.000000 112.000000,226.000000 
M59.500027,77.111107 
	C43.895508,77.111107 28.290987,77.111107 12.560637,77.111107 
	C12.560637,101.409088 12.560637,125.159920 12.560637,148.879272 
	C80.033379,148.879272 147.240829,148.879272 214.341202,148.879272 
	C214.341202,124.748940 214.341202,101.013954 214.341202,77.111107 
	C162.819153,77.111107 111.659592,77.111107 59.500027,77.111107 
z"/>
<path fill="#040404" opacity="1.000000" stroke="none" 
	d="
M60.000031,77.111107 
	C111.659592,77.111107 162.819153,77.111107 214.341202,77.111107 
	C214.341202,101.013954 214.341202,124.748940 214.341202,148.879272 
	C147.240829,148.879272 80.033379,148.879272 12.560637,148.879272 
	C12.560637,125.159920 12.560637,101.409088 12.560637,77.111107 
	C28.290987,77.111107 43.895508,77.111107 60.000031,77.111107 
M82.668228,130.878448 
	C83.103676,130.942108 83.539124,131.005753 84.235451,131.709610 
	C87.920113,133.727264 90.803810,132.624466 91.997284,128.857819 
	C92.458580,127.401955 91.510017,124.366554 90.320480,123.747192 
	C87.509933,122.283829 84.980232,123.476112 83.543541,127.005196 
	C83.543541,127.005196 83.113411,126.948540 83.053467,126.184944 
	C81.862396,122.015259 78.962196,123.153793 76.122589,123.888962 
	C75.480293,124.055260 74.728523,123.798698 73.202705,123.426796 
	C70.671616,123.387512 67.616997,122.550400 67.512077,127.164970 
	C67.337921,127.181435 67.163773,127.197899 66.443520,126.859573 
	C66.510147,125.723305 66.576775,124.587036 66.669731,123.001625 
	C62.175537,126.852364 62.175537,126.852364 59.620670,122.594093 
	C58.705780,126.046898 57.952160,128.891068 57.255108,131.521729 
	C59.526474,134.212723 62.225246,122.640717 63.424599,131.831421 
	C66.726349,131.831421 69.767609,131.831421 72.808861,131.831421 
	C72.864861,131.568573 72.920868,131.305725 72.976868,131.042877 
	C71.962532,130.543045 70.948204,130.043198 68.577354,128.874878 
	C71.097054,128.757370 72.043152,128.713242 73.604416,129.053970 
	C74.103943,130.184296 74.603470,131.314636 75.424919,133.173431 
	C76.511055,131.326508 77.146271,130.246353 77.197273,130.159622 
	C79.253700,130.544495 80.638153,130.803619 82.668228,130.878448 
M137.151367,94.190506 
	C126.618217,90.615845 115.892998,93.017860 104.885864,92.143631 
	C104.885864,99.461311 104.779884,105.766083 104.996765,112.059723 
	C105.030426,113.036713 106.540352,113.962845 107.367592,114.912491 
	C108.247597,114.004501 109.581512,113.230133 109.897659,112.156151 
	C110.335411,110.669075 110.007599,108.956642 110.007599,106.949547 
	C112.184433,106.949547 113.977203,107.007538 115.765114,106.938950 
	C121.721382,106.710449 127.756165,106.951622 133.609238,106.039658 
	C139.849869,105.067307 141.325119,100.283447 137.151367,94.190506 
M52.234306,103.914192 
	C52.862137,104.969742 53.313984,106.726585 54.153812,106.937332 
	C55.998207,107.400177 58.038887,107.080849 59.999432,107.080849 
	C60.227470,107.537888 60.455513,107.994926 60.683552,108.451965 
	C59.489059,109.328888 58.327606,110.905251 57.094437,110.963501 
	C51.284294,111.237991 45.451328,111.194954 39.634701,111.008934 
	C38.630997,110.976845 37.088142,109.903770 36.774807,108.979240 
	C33.933655,100.596237 37.030651,96.262085 45.653362,95.959900 
	C46.990704,95.913033 48.293423,94.878326 49.612152,94.300438 
	C48.224358,93.763321 46.849079,92.796959 45.446823,92.756073 
	C32.679638,92.383888 31.188120,94.038933 31.031666,106.517670 
	C30.971712,111.299438 32.974411,114.080315 37.402832,114.342552 
	C44.677967,114.773369 51.993233,114.637817 59.288200,114.524216 
	C60.673759,114.502647 62.787292,113.836357 63.272144,112.839027 
	C64.423454,110.470818 65.093666,107.742699 65.244133,105.119072 
	C65.274635,104.587234 62.199158,103.515869 60.486923,103.331764 
	C58.031193,103.067696 55.512383,103.390244 52.234306,103.914192 
M189.806274,99.952560 
	C181.308990,95.277550 172.473068,96.188103 163.874268,99.121475 
	C159.347000,100.665901 160.830276,105.467705 161.253754,108.798485 
	C161.492798,110.678505 163.809631,113.364372 165.615952,113.763916 
	C170.092560,114.754128 174.812042,114.885178 179.437073,114.917755 
	C190.310898,114.994339 192.869934,111.499870 189.806274,99.952560 
M82.698090,97.128296 
	C80.072052,97.463707 77.391548,97.571297 74.831650,98.183319 
	C69.930954,99.354988 70.067787,103.228256 70.013710,107.253853 
	C69.962212,111.087646 71.495323,113.735802 75.097099,113.955894 
	C81.820099,114.366692 88.622299,114.505745 95.323074,113.942863 
	C101.039886,113.462639 99.858223,108.530075 100.063477,104.623390 
	C100.261894,100.846794 98.803085,98.405930 95.025909,97.928185 
	C91.254250,97.451126 87.431450,97.378311 82.698090,97.128296 
M101.001801,120.785057 
	C101.001801,125.364594 101.001801,129.944122 101.001801,134.710327 
	C107.305191,134.710327 113.374069,134.710327 119.568497,134.710327 
	C119.568497,129.763748 119.568497,125.077126 119.568497,120.234344 
	C113.391235,120.234344 107.589554,120.234344 101.001801,120.785057 
M130.564362,134.959442 
	C134.633408,134.959442 138.702454,134.959442 142.649521,134.959442 
	C142.649521,129.661697 142.649521,125.090889 142.649521,120.430908 
	C136.294327,120.430908 130.253693,120.430908 124.049942,120.430908 
	C124.049942,125.319099 124.049942,129.893143 124.049942,134.959442 
	C126.025459,134.959442 127.808083,134.959442 130.564362,134.959442 
M152.638229,120.096962 
	C150.884857,120.096962 149.131470,120.096962 147.358475,120.096962 
	C147.358475,125.391129 147.358475,129.951874 147.358475,134.593277 
	C153.714661,134.593277 159.744461,134.593277 165.777512,134.593277 
	C165.777512,129.662674 165.777512,125.106567 165.777512,120.097061 
	C161.497955,120.097061 157.548370,120.097061 152.638229,120.096962 
M189.985535,121.796219 
	C189.347229,121.240089 188.719589,120.216095 188.068924,120.201248 
	C182.467697,120.073471 176.862305,120.127823 171.083801,120.127823 
	C171.083801,125.243744 171.083801,129.942856 171.083801,134.756927 
	C177.421478,134.756927 183.487366,134.756927 189.985001,134.756927 
	C189.985001,130.626633 189.985001,126.685936 189.985535,121.796219 
M148.742462,110.158539 
	C148.742340,108.999634 148.894043,107.816742 148.715469,106.686020 
	C147.992081,102.105553 149.887100,100.300224 154.455612,100.727371 
	C155.639603,100.838074 156.909470,100.030434 159.362198,99.261337 
	C154.427963,95.839256 150.416458,97.091515 147.112930,98.551018 
	C145.382126,99.315697 144.392120,102.510895 143.767853,104.799461 
	C143.221436,106.802612 143.410629,109.111420 143.743057,111.211067 
	C143.952103,112.531509 145.024368,113.715286 145.709366,114.960365 
	C146.720230,113.658463 147.731094,112.356560 148.742462,110.158539 
M33.953056,130.132935 
	C34.699306,130.632584 35.728600,131.724365 36.141644,131.526932 
	C37.727741,130.768768 39.116249,129.597229 40.317837,128.761230 
	C39.967793,127.150307 39.635002,125.618782 39.318069,124.160240 
	C37.594372,124.160240 35.984165,124.160240 33.952244,124.160240 
	C33.952244,126.003204 33.952244,127.632401 33.953056,130.132935 
z"/>
<path fill="#E8E8E8" opacity="1.000000" stroke="none" 
	d="
M137.469788,94.419861 
	C141.325119,100.283447 139.849869,105.067307 133.609238,106.039658 
	C127.756165,106.951622 121.721382,106.710449 115.765114,106.938950 
	C113.977203,107.007538 112.184433,106.949547 110.007599,106.949547 
	C110.007599,108.956642 110.335411,110.669075 109.897659,112.156151 
	C109.581512,113.230133 108.247597,114.004501 107.367592,114.912491 
	C106.540352,113.962845 105.030426,113.036713 104.996765,112.059723 
	C104.779884,105.766083 104.885864,99.461311 104.885864,92.143631 
	C115.892998,93.017860 126.618217,90.615845 137.469788,94.419861 
M119.516739,95.976128 
	C116.423828,95.976128 113.330910,95.976128 110.370575,95.976128 
	C110.370575,98.751167 110.370575,100.953217 110.370575,103.146202 
	C117.183708,103.146202 123.641838,103.156357 130.099899,103.140976 
	C132.527496,103.135201 134.168915,102.471863 134.185043,99.467522 
	C134.202255,96.259407 132.181519,96.069595 129.939041,96.018593 
	C126.793106,95.947037 123.644661,95.985008 119.516739,95.976128 
z"/>
<path fill="#E4E4E4" opacity="1.000000" stroke="none" 
	d="
M52.627403,103.688271 
	C55.512383,103.390244 58.031193,103.067696 60.486923,103.331764 
	C62.199158,103.515869 65.274635,104.587234 65.244133,105.119072 
	C65.093666,107.742699 64.423454,110.470818 63.272144,112.839027 
	C62.787292,113.836357 60.673759,114.502647 59.288200,114.524216 
	C51.993233,114.637817 44.677967,114.773369 37.402832,114.342552 
	C32.974411,114.080315 30.971712,111.299438 31.031666,106.517670 
	C31.188120,94.038933 32.679638,92.383888 45.446823,92.756073 
	C46.849079,92.796959 48.224358,93.763321 49.612152,94.300438 
	C48.293423,94.878326 46.990704,95.913033 45.653362,95.959900 
	C37.030651,96.262085 33.933655,100.596237 36.774807,108.979240 
	C37.088142,109.903770 38.630997,110.976845 39.634701,111.008934 
	C45.451328,111.194954 51.284294,111.237991 57.094437,110.963501 
	C58.327606,110.905251 59.489059,109.328888 60.683552,108.451965 
	C60.455513,107.994926 60.227470,107.537888 59.999432,107.080849 
	C58.038887,107.080849 55.998207,107.400177 54.153812,106.937332 
	C53.313984,106.726585 52.862137,104.969742 52.627403,103.688271 
z"/>
<path fill="#E9E9E9" opacity="1.000000" stroke="none" 
	d="
M190.018021,100.309891 
	C192.869934,111.499870 190.310898,114.994339 179.437073,114.917755 
	C174.812042,114.885178 170.092560,114.754128 165.615952,113.763916 
	C163.809631,113.364372 161.492798,110.678505 161.253754,108.798485 
	C160.830276,105.467705 159.347000,100.665901 163.874268,99.121475 
	C172.473068,96.188103 181.308990,95.277550 190.018021,100.309891 
M183.077744,100.947868 
	C178.773193,100.932632 174.468597,100.924255 170.164108,100.899864 
	C167.075348,100.882370 166.060196,102.259636 165.889572,105.458099 
	C165.657990,109.799629 167.122803,111.577362 171.417648,111.359413 
	C174.556839,111.200104 177.738953,111.564468 180.845215,111.205048 
	C182.581589,111.004143 185.608475,109.823128 185.619507,109.049019 
	C185.657318,106.398994 184.618057,103.733597 183.077744,100.947868 
z"/>
<path fill="#E7E7E7" opacity="1.000000" stroke="none" 
	d="
M83.164581,97.128281 
	C87.431450,97.378311 91.254250,97.451126 95.025909,97.928185 
	C98.803085,98.405930 100.261894,100.846794 100.063477,104.623390 
	C99.858223,108.530075 101.039886,113.462639 95.323074,113.942863 
	C88.622299,114.505745 81.820099,114.366692 75.097099,113.955894 
	C71.495323,113.735802 69.962212,111.087646 70.013710,107.253853 
	C70.067787,103.228256 69.930954,99.354988 74.831650,98.183319 
	C77.391548,97.571297 80.072052,97.463707 83.164581,97.128281 
M81.668152,111.348969 
	C84.805542,111.302498 87.942810,111.240509 91.080368,111.214142 
	C93.921486,111.190269 94.903206,109.950493 95.119728,106.967415 
	C95.465477,102.203796 93.865906,100.269547 89.066582,100.756821 
	C86.449623,101.022530 83.780045,100.719421 81.141922,100.840805 
	C78.256798,100.973557 75.204185,100.433350 74.987328,105.161316 
	C74.779564,109.691208 76.230713,111.662720 81.668152,111.348969 
z"/>
<path fill="#28A6DC" opacity="1.000000" stroke="none" 
	d="
M101.394836,120.509705 
	C107.589554,120.234344 113.391235,120.234344 119.568497,120.234344 
	C119.568497,125.077126 119.568497,129.763748 119.568497,134.710327 
	C113.374069,134.710327 107.305191,134.710327 101.001801,134.710327 
	C101.001801,129.944122 101.001801,125.364594 101.394836,120.509705 
z"/>
<path fill="#28A7DD" opacity="1.000000" stroke="none" 
	d="
M130.077530,134.959442 
	C127.808083,134.959442 126.025459,134.959442 124.049942,134.959442 
	C124.049942,129.893143 124.049942,125.319099 124.049942,120.430908 
	C130.253693,120.430908 136.294327,120.430908 142.649521,120.430908 
	C142.649521,125.090889 142.649521,129.661697 142.649521,134.959442 
	C138.702454,134.959442 134.633408,134.959442 130.077530,134.959442 
z"/>
<path fill="#075CA7" opacity="1.000000" stroke="none" 
	d="
M153.118500,120.097015 
	C157.548370,120.097061 161.497955,120.097061 165.777512,120.097061 
	C165.777512,125.106567 165.777512,129.662674 165.777512,134.593277 
	C159.744461,134.593277 153.714661,134.593277 147.358475,134.593277 
	C147.358475,129.951874 147.358475,125.391129 147.358475,120.096962 
	C149.131470,120.096962 150.884857,120.096962 153.118500,120.097015 
z"/>
<path fill="#FAFAFA" opacity="1.000000" stroke="none" 
	d="
M189.985260,122.270729 
	C189.985001,126.685936 189.985001,130.626633 189.985001,134.756927 
	C183.487366,134.756927 177.421478,134.756927 171.083801,134.756927 
	C171.083801,129.942856 171.083801,125.243744 171.083801,120.127823 
	C176.862305,120.127823 182.467697,120.073471 188.068924,120.201248 
	C188.719589,120.216095 189.347229,121.240089 189.985260,122.270729 
z"/>
<path fill="#E7E7E7" opacity="1.000000" stroke="none" 
	d="
M148.742218,110.606598 
	C147.731094,112.356560 146.720230,113.658463 145.709366,114.960373 
	C145.024368,113.715286 143.952103,112.531509 143.743057,111.211067 
	C143.410629,109.111420 143.221436,106.802612 143.767853,104.799461 
	C144.392120,102.510895 145.382126,99.315697 147.112930,98.551018 
	C150.416458,97.091515 154.427963,95.839256 159.362198,99.261337 
	C156.909470,100.030434 155.639603,100.838074 154.455612,100.727371 
	C149.887100,100.300224 147.992081,102.105553 148.715469,106.686020 
	C148.894043,107.816742 148.742340,108.999634 148.742218,110.606598 
z"/>
<path fill="#DCDCDC" opacity="1.000000" stroke="none" 
	d="
M72.989258,128.669113 
	C72.043152,128.713242 71.097054,128.757370 68.577354,128.874878 
	C70.948204,130.043198 71.962532,130.543045 72.976868,131.042877 
	C72.920868,131.305725 72.864861,131.568573 72.808861,131.831421 
	C69.767609,131.831421 66.726349,131.831421 63.424599,131.831421 
	C62.225246,122.640717 59.526474,134.212723 57.255108,131.521729 
	C57.952160,128.891068 58.705780,126.046898 59.620670,122.594093 
	C62.175537,126.852364 62.175537,126.852364 66.669731,123.001625 
	C66.576775,124.587036 66.510147,125.723305 66.741913,127.287117 
	C67.205971,127.903053 67.371628,128.091446 67.537285,128.279846 
	C67.674515,127.811317 67.811745,127.342789 67.948975,126.874260 
	C67.616997,122.550400 70.671616,123.387512 73.608871,123.949875 
	C73.673111,125.871674 73.331184,127.270393 72.989258,128.669113 
M65.534554,129.608978 
	C65.478493,129.830124 65.422440,130.051270 65.366379,130.272415 
	C65.504814,130.129883 65.643242,129.987335 65.534554,129.608978 
z"/>
<path fill="#D4D4D4" opacity="1.000000" stroke="none" 
	d="
M83.911415,126.775215 
	C84.980232,123.476112 87.509933,122.283829 90.320480,123.747192 
	C91.510017,124.366554 92.458580,127.401955 91.997284,128.857819 
	C90.803810,132.624466 87.920113,133.727264 84.111557,130.959961 
	C83.962257,129.065262 83.936836,127.920242 83.911415,126.775215 
z"/>
<path fill="#D4D4D4" opacity="1.000000" stroke="none" 
	d="
M73.296829,128.861542 
	C73.331184,127.270393 73.673111,125.871674 74.021088,124.104874 
	C74.728523,123.798698 75.480293,124.055260 76.122589,123.888962 
	C78.962196,123.153793 81.862396,122.015259 82.794403,126.799156 
	C82.364426,128.629822 82.193512,129.846268 82.022598,131.062729 
	C80.638153,130.803619 79.253700,130.544495 77.197273,130.159622 
	C77.146271,130.246353 76.511055,131.326508 75.424919,133.173431 
	C74.603470,131.314636 74.103943,130.184296 73.296829,128.861542 
z"/>
<path fill="#C8C8C8" opacity="1.000000" stroke="none" 
	d="
M33.952652,129.697266 
	C33.952244,127.632401 33.952244,126.003204 33.952244,124.160240 
	C35.984165,124.160240 37.594372,124.160240 39.318069,124.160240 
	C39.635002,125.618782 39.967793,127.150307 40.317837,128.761230 
	C39.116249,129.597229 37.727741,130.768768 36.141644,131.526932 
	C35.728600,131.724365 34.699306,130.632584 33.952652,129.697266 
z"/>
<path fill="#D1D1D1" opacity="1.000000" stroke="none" 
	d="
M82.345413,130.970581 
	C82.193512,129.846268 82.364426,128.629822 82.824371,127.180954 
	C83.113411,126.948540 83.543541,127.005196 83.727478,126.890205 
	C83.936836,127.920242 83.962257,129.065262 83.981125,130.639862 
	C83.539124,131.005753 83.103676,130.942108 82.345413,130.970581 
z"/>
<path fill="#D4D4D4" opacity="1.000000" stroke="none" 
	d="
M67.730530,127.019615 
	C67.811745,127.342789 67.674515,127.811317 67.537285,128.279846 
	C67.371628,128.091446 67.205971,127.903053 67.014969,127.464508 
	C67.163773,127.197899 67.337921,127.181435 67.730530,127.019615 
z"/>
<path fill="#010101" opacity="1.000000" stroke="none" 
	d="
M120.007019,95.976128 
	C123.644661,95.985008 126.793106,95.947037 129.939041,96.018593 
	C132.181519,96.069595 134.202255,96.259407 134.185043,99.467522 
	C134.168915,102.471863 132.527496,103.135201 130.099899,103.140976 
	C123.641838,103.156357 117.183708,103.146202 110.370575,103.146202 
	C110.370575,100.953217 110.370575,98.751167 110.370575,95.976128 
	C113.330910,95.976128 116.423828,95.976128 120.007019,95.976128 
z"/>
<path fill="#020202" opacity="1.000000" stroke="none" 
	d="
M183.533661,101.010971 
	C184.618057,103.733597 185.657318,106.398994 185.619507,109.049019 
	C185.608475,109.823128 182.581589,111.004143 180.845215,111.205048 
	C177.738953,111.564468 174.556839,111.200104 171.417648,111.359413 
	C167.122803,111.577362 165.657990,109.799629 165.889572,105.458099 
	C166.060196,102.259636 167.075348,100.882370 170.164108,100.899864 
	C174.468597,100.924255 178.773193,100.932632 183.533661,101.010971 
z"/>
<path fill="#020202" opacity="1.000000" stroke="none" 
	d="
M81.194458,111.344910 
	C76.230713,111.662720 74.779564,109.691208 74.987328,105.161316 
	C75.204185,100.433350 78.256798,100.973557 81.141922,100.840805 
	C83.780045,100.719421 86.449623,101.022530 89.066582,100.756821 
	C93.865906,100.269547 95.465477,102.203796 95.119728,106.967415 
	C94.903206,109.950493 93.921486,111.190269 91.080368,111.214142 
	C87.942810,111.240509 84.805542,111.302498 81.194458,111.344910 
z"/>
<path fill="#D4D4D4" opacity="1.000000" stroke="none" 
	d="
M65.658112,129.726883 
	C65.643242,129.987335 65.504814,130.129883 65.366379,130.272415 
	C65.422440,130.051270 65.478493,129.830124 65.658112,129.726883 
z"/>
</svg>